<svg width="1180" height="610" viewBox="0 0 1180 610" xmlns="http://www.w3.org/2000/svg" xmlns:xlink="http://www.w3.org/1999/xlink">
<defs>
  <clipPath id="rounded"><rect x="0" y="0" width="1180" height="610" rx="28"/></clipPath>
  <clipPath id="leftPanelClip"><rect x="32" y="32" width="416" height="546" rx="18"/></clipPath>
  <clipPath id="rightPanelClip"><rect x="472" y="32" width="676" height="546" rx="18"/></clipPath>

  <radialGradient id="blobOrange1" cx="50%" cy="50%" r="50%">
    <stop offset="0%" stop-color="#F97316" stop-opacity="0.5"/>
    <stop offset="100%" stop-color="#F97316" stop-opacity="0"/>
  </radialGradient>
  <radialGradient id="blobOrange2" cx="50%" cy="50%" r="50%">
    <stop offset="0%" stop-color="#FDBA74" stop-opacity="0.4"/>
    <stop offset="100%" stop-color="#FDBA74" stop-opacity="0"/>
  </radialGradient>
  <radialGradient id="blobOrange3" cx="50%" cy="50%" r="50%">
    <stop offset="0%" stop-color="#C2410C" stop-opacity="0.35"/>
    <stop offset="100%" stop-color="#C2410C" stop-opacity="0"/>
  </radialGradient>

  <linearGradient id="asciiGrad" x1="0%" y1="0%" x2="100%" y2="100%">
    <stop offset="0%" stop-color="#FDBA74"/>
    <stop offset="50%" stop-color="#F97316"/>
    <stop offset="100%" stop-color="#FDBA74"/>
    <animate attributeName="x1" values="-20%;120%;-20%" dur="6s" repeatCount="indefinite"/>
    <animate attributeName="x2" values="80%;220%;80%" dur="6s" repeatCount="indefinite"/>
  </linearGradient>

  <linearGradient id="accentGrad" x1="0%" y1="0%" x2="100%" y2="0%">
    <stop offset="0%" stop-color="#C2410C"/>
    <stop offset="50%" stop-color="#F97316"/>
    <stop offset="100%" stop-color="#FDBA74"/>
  </linearGradient>

  <linearGradient id="borderShimmer" x1="0%" y1="0%" x2="100%" y2="100%" gradientUnits="objectBoundingBox">
    <stop offset="0%" stop-color="rgba(255,255,255,0)"/>
    <stop offset="45%" stop-color="rgba(194,65,12,0.55)"/>
    <stop offset="50%" stop-color="rgba(249,115,22,0.85)"/>
    <stop offset="55%" stop-color="rgba(253,186,116,0.55)"/>
    <stop offset="100%" stop-color="rgba(255,255,255,0)"/>
    <animateTransform attributeName="gradientTransform" type="rotate" from="0 0.5 0.5" to="360 0.5 0.5" dur="7s" repeatCount="indefinite"/>
  </linearGradient>

  <linearGradient id="panelGlass" x1="0%" y1="0%" x2="0%" y2="100%">
    <stop offset="0%" stop-color="#FFFFFF" stop-opacity="0.06"/>
    <stop offset="12%" stop-color="#FFFFFF" stop-opacity="0.01"/>
    <stop offset="100%" stop-color="#FFFFFF" stop-opacity="0"/>
  </linearGradient>

  <linearGradient id="pillGrad" x1="0%" y1="0%" x2="100%" y2="0%">
    <stop offset="0%" stop-color="#F97316" stop-opacity="0.35"/>
    <stop offset="100%" stop-color="#FDBA74" stop-opacity="0.35"/>
  </linearGradient>

  <linearGradient id="scanGrad" x1="0%" y1="0%" x2="0%" y2="100%">
    <stop offset="0%" stop-color="#F97316" stop-opacity="0"/>
    <stop offset="50%" stop-color="#F97316" stop-opacity="0.35"/>
    <stop offset="100%" stop-color="#F97316" stop-opacity="0"/>
  </linearGradient>

  <filter id="softBlur" x="-50%" y="-50%" width="200%" height="200%"><feGaussianBlur stdDeviation="55"/></filter>
  <filter id="glowSoft" x="-100%" y="-100%" width="300%" height="300%"><feGaussianBlur stdDeviation="4" result="b"/><feMerge><feMergeNode in="b"/><feMergeNode in="SourceGraphic"/></feMerge></filter>
  <filter id="glowText" x="-60%" y="-60%" width="220%" height="220%"><feGaussianBlur stdDeviation="2.2" result="b"/><feMerge><feMergeNode in="b"/><feMergeNode in="SourceGraphic"/></feMerge></filter>

  <filter id="noiseFilter" x="0" y="0" width="100%" height="100%">
    <feTurbulence type="fractalNoise" baseFrequency="0.85" numOctaves="2" stitchTiles="stitch" result="n"/>
    <feColorMatrix in="n" type="matrix" values="0 0 0 0 1  0 0 0 0 1  0 0 0 0 1  0 0 0 0.035 0"/>
  </filter>

  <!-- master timing clocks -->
  <rect id="clock" x="-10" y="-10" width="1" height="1" opacity="0">
    <animate id="clockAnim" attributeName="opacity" values="0;0" dur="30s" repeatCount="indefinite"/>
  </rect>

</defs>

<g clip-path="url(#rounded)">
  <!-- BACKGROUND -->
  <rect x="0" y="0" width="1180" height="610" fill="#000000"/>
<!-- outer border shimmer -->
  <rect x="1.5" y="1.5" width="1177" height="607" rx="27" fill="none" stroke="url(#borderShimmer)" stroke-width="1.5"/>
  <rect x="1.5" y="1.5" width="1177" height="607" rx="27" fill="none" stroke="rgba(249,115,22,0.12)" stroke-width="1"/>

  <!-- ============ LEFT PANEL ============ -->
  <g>
    <rect x="32" y="32" width="416" height="546" rx="18" fill="#111111"/>
    
    <rect x="32.5" y="32.5" width="415" height="545" rx="18" fill="none" stroke="rgba(249,115,22,0.12)"/>

    <g clip-path="url(#leftPanelClip)">
      <!-- floating ascii group -->
      <g font-family="'JetBrains Mono','Fira Code',monospace">
        <animateTransform attributeName="transform" type="translate" values="0,0;0,-6;0,0;0,5;0,0" dur="7s" repeatCount="indefinite"/>

        <!-- terminal mini header -->
        <circle cx="64" cy="62" r="5" fill="#EF4444" opacity="0.85"/>
        <circle cx="82" cy="62" r="5" fill="#F59E0B" opacity="0.85"/>
        <circle cx="100" cy="62" r="5" fill="#10B981" opacity="0.85"/>
        <text x="240" y="66" text-anchor="end" font-size="11" fill="#9096B8">portrait.ascii</text>
        <line x1="64" y1="80" x2="416" y2="80" stroke="rgba(249,115,22,0.12)"/>

        <g fill="url(#asciiGrad)" font-size="15" filter="url(#glowText)" xml:space="preserve" font-family="'JetBrains Mono','Fira Code',monospace">
          <g opacity="0"><animate attributeName="opacity" values="0;0;1;1" keyTimes="0;0.020;0.050;1" dur="30s" begin="0s" repeatCount="indefinite"/>
            <text x="64" y="104">                           </text></g>
          <g opacity="0"><animate attributeName="opacity" values="0;0;1;1" keyTimes="0;0.047;0.077;1" dur="30s" begin="0s" repeatCount="indefinite"/>
            <text x="64" y="123">          ##%#####         </text></g>
          <g opacity="0"><animate attributeName="opacity" values="0;0;1;1" keyTimes="0;0.074;0.104;1" dur="30s" begin="0s" repeatCount="indefinite"/>
            <text x="64" y="142">        %%%%%%%%%%%%       </text></g>
          <g opacity="0"><animate attributeName="opacity" values="0;0;1;1" keyTimes="0;0.101;0.131;1" dur="30s" begin="0s" repeatCount="indefinite"/>
            <text x="64" y="161">       #*+===+===+*%%      </text></g>
          <g opacity="0"><animate attributeName="opacity" values="0;0;1;1" keyTimes="0;0.128;0.158;1" dur="30s" begin="0s" repeatCount="indefinite"/>
            <text x="64" y="180">       #*+++++====+#%      </text></g>
          <g opacity="0"><animate attributeName="opacity" values="0;0;1;1" keyTimes="0;0.155;0.185;1" dur="30s" begin="0s" repeatCount="indefinite"/>
            <text x="64" y="199">       #*##*+++**==*#      </text></g>
          <g opacity="0"><animate attributeName="opacity" values="0;0;1;1" keyTimes="0;0.182;0.212;1" dur="30s" begin="0s" repeatCount="indefinite"/>
            <text x="64" y="218">      ==*###++*#*+-=+      </text></g>
          <g opacity="0"><animate attributeName="opacity" values="0;0;1;1" keyTimes="0;0.209;0.239;1" dur="30s" begin="0s" repeatCount="indefinite"/>
            <text x="64" y="237">       *+++*=-===--==      </text></g>
          <g opacity="0"><animate attributeName="opacity" values="0;0;1;1" keyTimes="0;0.236;0.266;1" dur="30s" begin="0s" repeatCount="indefinite"/>
            <text x="64" y="256">       *****=-==--=+=      </text></g>
          <g opacity="0"><animate attributeName="opacity" values="0;0;1;1" keyTimes="0;0.263;0.293;1" dur="30s" begin="0s" repeatCount="indefinite"/>
            <text x="64" y="275">         *#%%##+=-=        </text></g>
          <g opacity="0"><animate attributeName="opacity" values="0;0;1;1" keyTimes="0;0.290;0.320;1" dur="30s" begin="0s" repeatCount="indefinite"/>
            <text x="64" y="294">         **##*++=+*%@%     </text></g>
          <g opacity="0"><animate attributeName="opacity" values="0;0;1;1" keyTimes="0;0.317;0.347;1" dur="30s" begin="0s" repeatCount="indefinite"/>
            <text x="64" y="313">         %%%##***++#@@%    </text></g>
          <g opacity="0"><animate attributeName="opacity" values="0;0;1;1" keyTimes="0;0.344;0.374;1" dur="30s" begin="0s" repeatCount="indefinite"/>
            <text x="64" y="332">      @@@@@%*##**%@@@@@%%%%</text></g>
          <g opacity="0"><animate attributeName="opacity" values="0;0;1;1" keyTimes="0;0.371;0.401;1" dur="30s" begin="0s" repeatCount="indefinite"/>
            <text x="64" y="351">      @@@@@#*%@@@@@@@@@@@%%</text></g>

          <g opacity="0"><animate attributeName="opacity" values="0;0;1;1" keyTimes="0;0.45;0.48;1" dur="30s" begin="0s" repeatCount="indefinite"/>
            <text x="64" y="390" font-size="11">  &lt; SYSTEM :: ONLINE &gt;</text></g>
          <g opacity="0"><animate attributeName="opacity" values="0;0;1;1" keyTimes="0;0.50;0.53;1" dur="30s" begin="0s" repeatCount="indefinite"/>
            <text x="64" y="410" font-size="11">  &lt; USER   :: rehan_zahid &gt;</text></g>
          <g opacity="0"><animate attributeName="opacity" values="0;0;1;1" keyTimes="0;0.55;0.58;1" dur="30s" begin="0s" repeatCount="indefinite"/>
            <text x="64" y="430" font-size="11">  &lt; STATUS :: OPEN_TO_WORK &gt;</text></g>
        </g>

        <!-- blinking cursor after ascii -->
        <g opacity="0">
          <animate attributeName="opacity" values="0;0;1;1" keyTimes="0;0.58;0.60;1" dur="30s" begin="0s" repeatCount="indefinite"/>
          <rect x="64" y="440" width="9" height="14" fill="#F97316">
            <animate attributeName="opacity" values="1;0;1" dur="1s" repeatCount="indefinite"/>
          </rect>
        </g>
      </g>

      <!-- scanline sweep -->
      <rect x="32" y="0" width="416" height="26" fill="url(#scanGrad)">
        <animate attributeName="y" values="60;590;60" dur="6s" repeatCount="indefinite"/>
      </rect>
    </g>
  </g>

  <!-- ============ RIGHT PANEL ============ -->
  <g>
    <rect x="472" y="32" width="676" height="546" rx="18" fill="#111111"/>
    
    <rect x="472.5" y="32.5" width="675" height="545" rx="18" fill="none" stroke="rgba(249,115,22,0.12)"/>

    <g clip-path="url(#rightPanelClip)" font-family="'JetBrains Mono','Fira Code',monospace">
      <!-- terminal chrome -->
      <circle cx="504" cy="62" r="5.5" fill="#EF4444" opacity="0.9"/>
      <circle cx="522" cy="62" r="5.5" fill="#F59E0B" opacity="0.9"/>
      <circle cx="540" cy="62" r="5.5" fill="#10B981" opacity="0.9"/>
      <text x="1116" y="66" text-anchor="end" font-size="11" fill="#9096B8">rehan@dev:~$ whoami</text>
      <line x1="504" y1="80" x2="1116" y2="80" stroke="rgba(249,115,22,0.12)"/>

      <!-- greeting typing -->
      <g>
        <clipPath id="typeGreet"><rect x="504" y="90" width="0" height="40"><animate attributeName="width" values="0;0;450;450" keyTimes="0;0.02;0.16;1" dur="30s" begin="0s" repeatCount="indefinite"/></rect></clipPath>
        <g clip-path="url(#typeGreet)">
          <g transform="translate(504,96) scale(0.9)" fill="none" stroke="#F97316" stroke-width="2.4" stroke-linecap="round" stroke-linejoin="round">
            <path d="M8 6 2 12l6 6"/><path d="M16 6l6 6-6 6"/>
          </g>
          <text x="536" y="116" font-size="26" font-weight="700" fill="#F8FAFC">I'm Rehan Zahid</text>
        </g>
        <g opacity="0">
          <animate attributeName="opacity" values="0;0;1;1;0" keyTimes="0;0.02;0.03;0.16;1" dur="30s" begin="0s" repeatCount="indefinite"/>
          <rect x="504" y="98" width="10" height="22" fill="#F97316">
            <animate attributeName="opacity" values="1;0;1" dur="0.8s" repeatCount="indefinite"/>
          </rect>
        </g>
      </g>

      <!-- role rotator -->
      <g font-size="17" fill="url(#accentGrad)" font-weight="600">
        <text x="504" y="150">&gt;</text>
        <g>
          <clipPath id="role1"><rect x="522" y="132" width="0" height="24"><animate attributeName="width" values="0;214;214;0;0" keyTimes="0;0.05;0.20;0.23;1" dur="30s" begin="0s" repeatCount="indefinite"/></rect></clipPath>
          <g clip-path="url(#role1)"><text x="522" y="150">Full Stack Developer</text></g>
        </g>
        <g>
          <clipPath id="role2"><rect x="522" y="132" width="0" height="24"><animate attributeName="width" values="0;0;0;194;194;0;0" keyTimes="0;0.25;0.30;0.45;0.48;0.5;1" dur="30s" begin="0s" repeatCount="indefinite"/></rect></clipPath>
          <g clip-path="url(#role2)"><text x="522" y="150">Frontend Developer</text></g>
        </g>
        <g>
          <clipPath id="role3"><rect x="522" y="132" width="0" height="24"><animate attributeName="width" values="0;0;0;224;224;0;0" keyTimes="0;0.5;0.55;0.70;0.73;0.75;1" dur="30s" begin="0s" repeatCount="indefinite"/></rect></clipPath>
          <g clip-path="url(#role3)"><text x="522" y="150">PHP &amp; MySQL Developer</text></g>
        </g>
        <g>
          <clipPath id="role4"><rect x="522" y="132" width="0" height="24"><animate attributeName="width" values="0;0;0;153;153;0;0" keyTimes="0;0.75;0.80;0.95;0.98;0.99;1" dur="30s" begin="0s" repeatCount="indefinite"/></rect></clipPath>
          <g clip-path="url(#role4)"><text x="522" y="150">React Developer</text></g>
        </g>
        <rect y="134" width="8" height="19" fill="#F97316">
          <animate attributeName="x" values="522;736;736;522;522;716;716;522;522;746;746;522;522;675;675;522;522" keyTimes="0;0.05;0.20;0.23;0.25;0.30;0.45;0.48;0.5;0.55;0.70;0.73;0.75;0.80;0.95;0.98;1" dur="30s" begin="0s" repeatCount="indefinite"/>
          <animate attributeName="opacity" values="1;0;1" dur="0.7s" repeatCount="indefinite"/>
        </rect>
      </g>

      <line x1="504" y1="176" x2="1116" y2="176" stroke="rgba(249,115,22,0.10)"/>

      <!-- info lines sequential reveal -->
      <g font-size="13.5" fill="#9096B8">
        <g opacity="0"><animate attributeName="opacity" values="0;0;1;1" keyTimes="0;0.5;0.55;1" dur="30s" begin="0s" repeatCount="indefinite"/>
          <g transform="translate(504,193) scale(0.583)" fill="none" stroke="#F97316" stroke-width="2" stroke-linecap="round" stroke-linejoin="round"><path d="M12 21s-7-7.5-7-12a7 7 0 0 1 14 0c0 4.5-7 12-7 12z"/><circle cx="12" cy="9" r="2.3"/></g>
          <text x="524" y="206"><tspan fill="#F97316" font-weight="600">Location</tspan><tspan fill="#5C6390">  —  </tspan><tspan fill="#F8FAFC">Islamabad, Pakistan</tspan></text></g>
        <g opacity="0"><animate attributeName="opacity" values="0;0;1;1" keyTimes="0;0.56;0.61;1" dur="30s" begin="0s" repeatCount="indefinite"/>
          <g transform="translate(504,219) scale(0.583)" fill="none" stroke="#FDBA74" stroke-width="2" stroke-linecap="round" stroke-linejoin="round"><path d="M2 9l10-5 10 5-10 5-10-5z"/><path d="M6 11.5v4c0 1.5 3 3 6 3s6-1.5 6-3v-4"/></g>
          <text x="524" y="232"><tspan fill="#FDBA74" font-weight="600">Education</tspan><tspan fill="#5C6390">  —  </tspan><tspan fill="#F8FAFC">ICS + Bano Qabil Web Dev</tspan></text></g>
        <g opacity="0"><animate attributeName="opacity" values="0;0;1;1" keyTimes="0;0.62;0.67;1" dur="30s" begin="0s" repeatCount="indefinite"/>
          <g transform="translate(504,245) scale(0.583)" fill="none" stroke="#F97316" stroke-width="2" stroke-linecap="round" stroke-linejoin="round"><path d="M13 2 4 14h7l-1 8 9-12h-7l1-8z"/></g>
          <text x="524" y="258"><tspan fill="#F97316" font-weight="600">Current Focus</tspan><tspan fill="#5C6390">  —  </tspan><tspan fill="#F8FAFC">Full-stack apps, open to internships</tspan></text></g>
        <g opacity="0"><animate attributeName="opacity" values="0;0;1;1" keyTimes="0;0.68;0.73;1" dur="30s" begin="0s" repeatCount="indefinite"/>
          <g transform="translate(504,271) scale(0.583)" fill="none" stroke="#FDBA74" stroke-width="2" stroke-linecap="round" stroke-linejoin="round"><circle cx="12" cy="12" r="9"/><ellipse cx="12" cy="12" rx="4" ry="9"/><line x1="3" y1="12" x2="21" y2="12"/></g>
          <text x="524" y="284"><tspan fill="#FDBA74" font-weight="600">Portfolio</tspan><tspan fill="#5C6390">  —  </tspan><tspan fill="#F8FAFC">rehankhanzahid789.github.io</tspan></text></g>
        <g opacity="0"><animate attributeName="opacity" values="0;0;1;1" keyTimes="0;0.74;0.79;1" dur="30s" begin="0s" repeatCount="indefinite"/>
          <g transform="translate(504,297) scale(0.583)" fill="none" stroke="#F97316" stroke-width="2" stroke-linecap="round" stroke-linejoin="round"><rect x="2" y="4" width="20" height="16" rx="2"/><path d="M2 6l10 7 10-7"/></g>
          <text x="524" y="310"><tspan fill="#F97316" font-weight="600">Email</tspan><tspan fill="#5C6390">  —  </tspan><tspan fill="#F8FAFC">rehankhanzahid789@gmail.com</tspan></text></g>
      </g>

      <line x1="504" y1="332" x2="1116" y2="332" stroke="rgba(249,115,22,0.10)"/>
      <text x="504" y="356" font-size="12" fill="#5C6390" letter-spacing="2">SKILLS &amp; TOOLS</text>

      <!-- skill pills -->
      <g font-size="12" font-weight="600">
        <!-- row 1 -->
        <g transform="translate(504,368)">
          <g><animateTransform attributeName="transform" type="scale" values="1;1.06;1" dur="3s" begin="0s" repeatCount="indefinite" additive="sum"/>
            <rect width="98" height="30" rx="15" fill="url(#pillGrad)" stroke="#F97316" stroke-opacity="0.5" filter="url(#glowSoft)"/>
            <text x="49" y="20" text-anchor="middle" fill="#F8FAFC">JavaScript</text></g>
          <g transform="translate(110,0)"><animateTransform attributeName="transform" type="scale" values="1;1.06;1" dur="3s" begin="0.3s" repeatCount="indefinite" additive="sum"/>
            <rect width="49" height="30" rx="15" fill="url(#pillGrad)" stroke="#F97316" stroke-opacity="0.5" filter="url(#glowSoft)"/>
            <text x="24.5" y="20" text-anchor="middle" fill="#F8FAFC">PHP</text></g>
          <g transform="translate(171,0)"><animateTransform attributeName="transform" type="scale" values="1;1.06;1" dur="3s" begin="0.6s" repeatCount="indefinite" additive="sum"/>
            <rect width="49" height="30" rx="15" fill="url(#pillGrad)" stroke="#F97316" stroke-opacity="0.5" filter="url(#glowSoft)"/>
            <text x="24.5" y="20" text-anchor="middle" fill="#F8FAFC">CSS</text></g>
          <g transform="translate(232,0)"><animateTransform attributeName="transform" type="scale" values="1;1.06;1" dur="3s" begin="0.9s" repeatCount="indefinite" additive="sum"/>
            <rect width="56" height="30" rx="15" fill="url(#pillGrad)" stroke="#F97316" stroke-opacity="0.5" filter="url(#glowSoft)"/>
            <text x="28" y="20" text-anchor="middle" fill="#F8FAFC">HTML</text></g>
        </g>
        <!-- row 2 -->
        <g transform="translate(504,408)">
          <g><animateTransform attributeName="transform" type="scale" values="1;1.06;1" dur="3s" begin="1.2s" repeatCount="indefinite" additive="sum"/>
            <rect width="63" height="30" rx="15" fill="url(#pillGrad)" stroke="#FDBA74" stroke-opacity="0.5" filter="url(#glowSoft)"/>
            <text x="31.5" y="20" text-anchor="middle" fill="#F8FAFC">MySQL</text></g>
          <g transform="translate(75,0)"><animateTransform attributeName="transform" type="scale" values="1;1.06;1" dur="3s" begin="1.5s" repeatCount="indefinite" additive="sum"/>
            <rect width="63" height="30" rx="15" fill="url(#pillGrad)" stroke="#FDBA74" stroke-opacity="0.5" filter="url(#glowSoft)"/>
            <text x="31.5" y="20" text-anchor="middle" fill="#F8FAFC">React</text></g>
          <g transform="translate(150,0)"><animateTransform attributeName="transform" type="scale" values="1;1.06;1" dur="3s" begin="1.8s" repeatCount="indefinite" additive="sum"/>
            <rect width="49" height="30" rx="15" fill="url(#pillGrad)" stroke="#FDBA74" stroke-opacity="0.5" filter="url(#glowSoft)"/>
            <text x="24.5" y="20" text-anchor="middle" fill="#F8FAFC">Git</text></g>
        </g>
      </g>

      <line x1="504" y1="464" x2="1116" y2="464" stroke="rgba(249,115,22,0.10)"/>
      <text x="504" y="488" font-size="12" fill="#5C6390" letter-spacing="2">CONNECT</text>

      <!-- social icons with URLs beside them -->
      <g transform="translate(504,504)" font-size="12.5" font-weight="600" fill="#9096B8">
        <g>
          <circle cx="20" cy="20" r="20" fill="#141731" stroke="url(#accentGrad)" stroke-width="1.4" filter="url(#glowSoft)">
            <animate attributeName="stroke-width" values="1;2;1" dur="3.4s" repeatCount="indefinite"/>
          </circle>
          <path d="M20 10a10 10 0 0 0-3.16 19.49c.5.09.68-.22.68-.48v-1.7c-2.78.6-3.37-1.34-3.37-1.34-.46-1.16-1.11-1.47-1.11-1.47-.91-.62.07-.6.07-.6 1 .07 1.53 1.03 1.53 1.03.89 1.53 2.34 1.09 2.91.83.09-.65.35-1.09.63-1.34-2.22-.25-4.56-1.11-4.56-4.94 0-1.09.39-1.98 1.03-2.68-.1-.25-.45-1.27.1-2.65 0 0 .84-.27 2.75 1.02a9.53 9.53 0 0 1 5 0c1.91-1.29 2.75-1.02 2.75-1.02.55 1.38.2 2.4.1 2.65.64.7 1.03 1.59 1.03 2.68 0 3.84-2.35 4.68-4.58 4.93.36.31.68.92.68 1.85v2.74c0 .26.18.58.69.48A10 10 0 0 0 20 10z" fill="#F8FAFC"/>
          <text x="50" y="25" fill="#9096B8">github.com/rehankhanzahid789</text>
        </g>
        <g transform="translate(330,0)">
          <circle cx="20" cy="20" r="20" fill="#141731" stroke="url(#accentGrad)" stroke-width="1.4" filter="url(#glowSoft)">
            <animate attributeName="stroke-width" values="1;2;1" dur="3.4s" begin="0.5s" repeatCount="indefinite"/>
          </circle>
          <g transform="translate(11,11) scale(0.75)" fill="none" stroke="#F8FAFC" stroke-width="2" stroke-linecap="round" stroke-linejoin="round"><rect x="2" y="2" width="20" height="20" rx="5"/><circle cx="12" cy="12" r="4"/><circle cx="17.3" cy="6.7" r="1.1" fill="#F8FAFC" stroke="none"/></g>
          <text x="50" y="25" fill="#9096B8">instagram.com/devrehanzahid</text>
        </g>
      </g>
    </g>
  </g>

  <!-- inner top glass reflection -->
  
</g>
</svg>
